<svg xmlns="http://www.w3.org/2000/svg" width="21.43" height="22.032" viewBox="0 0 21.43 22.032"><path d="M218.263,418h-8.684l8.505-1.75a1,1,0,0,0,.778-1.181l-.927-4.507a1,1,0,0,0-1.181-.778l-18.122,3.73a1,1,0,0,0-.778,1.181l.907,4.408V430.8a1,1,0,0,0,1,1h18.5a1,1,0,0,0,1-1V419A1,1,0,0,0,218.263,418Zm-1,8.922h-16.5V420h.439l2.486,3.142a1,1,0,1,0,1.568-1.241l-1.5-1.9h2.807l2.486,3.142a1,1,0,1,0,1.568-1.241l-1.5-1.9h2.807l2.486,3.142a1,1,0,1,0,1.569-1.241l-1.5-1.9h2.8Zm-1.086-14.977.525,2.548-16.163,3.326-.525-2.548ZM200.761,429.8v-.873h16.5v.873Z" transform="translate(-197.833 -409.764)" fill="#ff3939"/></svg>